<svg xmlns="http://www.w3.org/2000/svg" version="1.1">
<polygon points="11.55,30.00 9.24,26.00 13.86,26.00 " style="fill:#ffffff;fill-opacity:1.00;stroke:#ffffff;stroke-width:1.00;stroke-opacity:1.00" />
<polygon points="13.86,18.00 11.55,22.00 16.17,22.00 " style="fill:#ffffff;fill-opacity:1.00;stroke:#ffffff;stroke-width:1.00;stroke-opacity:1.00" />
<polygon points="11.55,22.00 9.24,26.00 13.86,26.00 " style="fill:#ffffff;fill-opacity:1.00;stroke:#ffffff;stroke-width:1.00;stroke-opacity:1.00" />
<polygon points="16.17,22.00 13.86,18.00 18.48,18.00 " style="fill:#ffffff;fill-opacity:1.00;stroke:#ffffff;stroke-width:1.00;stroke-opacity:1.00" />
<polygon points="13.86,26.00 11.55,22.00 16.17,22.00 " style="fill:#ffffff;fill-opacity:1.00;stroke:#ffffff;stroke-width:1.00;stroke-opacity:1.00" />
<polygon points="18.48,10.00 16.17,14.00 20.78,14.00 " style="fill:#ffffff;fill-opacity:1.00;stroke:#ffffff;stroke-width:1.00;stroke-opacity:1.00" />
<polygon points="16.17,14.00 13.86,18.00 18.48,18.00 " style="fill:#ffffff;fill-opacity:1.00;stroke:#ffffff;stroke-width:1.00;stroke-opacity:1.00" />
<polygon points="18.48,18.00 16.17,14.00 20.78,14.00 " style="fill:#ffffff;fill-opacity:1.00;stroke:#ffffff;stroke-width:1.00;stroke-opacity:1.00" />
<polygon points="20.78,22.00 18.48,18.00 23.09,18.00 " style="fill:#ffffff;fill-opacity:1.00;stroke:#ffffff;stroke-width:1.00;stroke-opacity:1.00" />
<polygon points="20.78,14.00 18.48,18.00 23.09,18.00 " style="fill:#ffffff;fill-opacity:1.00;stroke:#ffffff;stroke-width:1.00;stroke-opacity:1.00" />
<polygon points="23.09,18.00 20.78,22.00 25.40,22.00 " style="fill:#ffffff;fill-opacity:1.00;stroke:#ffffff;stroke-width:1.00;stroke-opacity:1.00" />
<polygon points="23.09,26.00 20.78,22.00 25.40,22.00 " style="fill:#ffffff;fill-opacity:1.00;stroke:#ffffff;stroke-width:1.00;stroke-opacity:1.00" />
<polygon points="25.40,30.00 23.09,26.00 27.71,26.00 " style="fill:#ffffff;fill-opacity:1.00;stroke:#ffffff;stroke-width:1.00;stroke-opacity:1.00" />
<polygon points="25.40,22.00 23.09,26.00 27.71,26.00 " style="fill:#ffffff;fill-opacity:1.00;stroke:#ffffff;stroke-width:1.00;stroke-opacity:1.00" />
</svg>
